<?xml version="1.0" standalone="no"?>
<!DOCTYPE svg PUBLIC "-//W3C//DTD SVG 20010904//EN"
 "http://www.w3.org/TR/2001/REC-SVG-20010904/DTD/svg10.dtd">
<svg version="1.0" fill="yellow" xmlns="http://www.w3.org/2000/svg"
 width="200" height="50" viewBox="0 0 190 40"
 preserveAspectRatio="xMidYMid meet">

<g transform="translate(0.000000,36.000000) scale(0.100000,-0.100000)"
fill="red" stroke="yellow">
<path  fill-rule="evenodd" clip-rule="evenodd" d="M1143 225 c0 -22 2 -30 4 -17 2 12 2 30 0 40 -3 9 -5 -1 -4 -23z"/>
<path d="M443 213 c12 -3 17 -15 18 -41 l2 -37 6 34 c4 21 14 37 26 42 14 5 7
7 -25 7 -25 0 -37 -2 -27 -5z"    fill="url(#paint0_linear_120_1360)" />
<path d="M553 180 c-1 -25 1 -37 4 -27 5 18 53 25 53 7 0 -5 5 -10 10 -10 6 0
10 14 10 30 0 17 -4 30 -10 30 -5 0 -10 -7 -10 -15 0 -26 -48 -19 -53 8 -2 12
-4 2 -4 -23z"/>
<path d="M674 196 c-8 -18 -8 -28 -1 -35 18 -18 24 -12 19 20 -4 28 -2 30 19
27 14 -2 25 -11 27 -22 3 -15 0 -18 -18 -13 -21 5 -21 5 -4 -14 9 -10 20 -19
23 -19 11 0 10 55 -1 68 -17 20 -52 14 -64 -12z"/>
<path d="M800 180 c0 -39 1 -40 33 -39 30 2 30 2 5 6 -34 5 -37 20 -5 26 l22
4 -22 2 c-33 2 -29 29 5 34 25 4 25 4 -5 6 -32 1 -33 0 -33 -39z"/>
<path d="M1030 179 c0 -39 1 -40 32 -37 17 2 33 10 36 18 4 12 2 13 -9 3 -25
-24 -49 -16 -49 17 0 23 4 30 20 30 10 0 24 -8 29 -17 9 -16 10 -16 11 -2 0
18 -20 29 -51 29 -16 0 -19 -7 -19 -41z"/>
<path d="M1197 213 c-11 -10 -8 -63 3 -63 6 0 10 6 10 14 0 8 8 17 18 19 16 4
16 5 0 6 -26 2 -22 19 5 24 20 4 20 4 -4 6 -14 0 -29 -2 -32 -6z"/>
<path d="M1282 200 c9 -14 18 -35 21 -45 5 -19 5 -19 6 0 0 11 9 32 18 45 16
25 16 25 -3 8 -19 -17 -21 -17 -39 0 -18 16 -18 16 -3 -8z"/>
<path d="M927 181 c-9 -16 -17 -31 -17 -33 0 -2 18 -2 40 0 l39 4 -15 29 c-18
36 -25 36 -47 0z m41 -9 c2 -7 -5 -12 -17 -12 -14 0 -19 5 -14 15 6 17 25 15
31 -3z"  fill="red" />

</g>
<defs>
<linearGradient id="paint0_linear_120_1360" x1="15" y1="3" x2="15" y2="33" gradientUnits="userSpaceOnUse">
<stop stop-color="#877EFF"/>
<stop offset="0.461458" stop-color="#685DFF"/>
<stop offset="1" stop-color="#3121FF"/>
</linearGradient>
</defs>

</svg>
